<svg width="3313" height="693" viewBox="0 0 3313 693" fill="none" xmlns="http://www.w3.org/2000/svg">
<mask id="mask0_218_1919" style="mask-type:luminance" maskUnits="userSpaceOnUse" x="-3" y="0" width="3320" height="694">
<path d="M3316.78 0H-3V693.291H3316.78V0Z" fill="white"/>
</mask>
<g mask="url(#mask0_218_1919)">
<path d="M3316.78 119.307C2692.99 -163.478 1730.04 279.864 801.148 291.549C349.582 297.275 -2 167.568 -2 167.568V693.291H3316.66V119.307H3316.78Z" fill="#0061AB"/>
<path d="M2994.53 463.979C3008.26 460.055 3023.22 468.306 3027.54 482.075L3027.55 482.081L3049.96 551.81L3050.19 552.528L3050.95 552.503L3125.13 550.057L3125.88 550.032L3126.07 549.3V549.298C3126.07 549.296 3126.07 549.294 3126.07 549.29C3126.07 549.282 3126.08 549.27 3126.08 549.254C3126.09 549.221 3126.1 549.171 3126.12 549.105C3126.15 548.975 3126.21 548.783 3126.28 548.547C3126.42 548.073 3126.63 547.421 3126.9 546.71C3127.46 545.243 3128.21 543.689 3129.07 542.832C3131.46 540.432 3135.55 539.145 3139.74 539.047C3143.93 538.948 3147.9 540.045 3150.08 542.033C3151.15 543.11 3152 544.78 3152.6 546.269C3152.89 547.002 3153.11 547.663 3153.26 548.141C3153.33 548.379 3153.39 548.57 3153.42 548.7C3153.44 548.765 3153.45 548.815 3153.46 548.848C3153.47 548.864 3153.47 548.875 3153.47 548.883C3153.47 548.886 3153.47 548.889 3153.47 548.891V548.893L3153.67 549.685L3154.49 549.648L3219.7 546.794L3220.52 546.758L3220.65 545.946C3220.65 545.944 3220.65 545.939 3220.65 545.932C3220.65 545.917 3220.66 545.892 3220.66 545.858C3220.68 545.791 3220.7 545.689 3220.73 545.556C3220.79 545.289 3220.88 544.9 3221.03 544.43C3221.32 543.486 3221.81 542.232 3222.6 540.972C3224.15 538.473 3226.84 535.972 3231.52 535.784L3231.52 535.783C3237.09 535.592 3239.7 537.776 3240.97 539.847C3241.63 540.918 3241.97 542.009 3242.14 542.84C3242.22 543.253 3242.26 543.596 3242.28 543.83C3242.29 543.947 3242.3 544.037 3242.3 544.095C3242.3 544.123 3242.3 544.143 3242.3 544.155V545.226L3243.36 545.162L3304.5 541.492L3304.85 541.472L3305.11 541.235L3310.03 536.785L3304.57 548.571L3155.09 574.985L3154.97 575.007L3154.85 575.056L3094.12 601.969L3093.58 602.208L3093.53 602.796L3092.82 610.929L3085.05 608.454L3084.5 608.279L3084.07 608.667L3076.69 615.379L3075.96 597.134C3075.94 594.487 3073.79 592.912 3071.7 592.912C3070.39 592.912 3069.3 593.446 3068.54 594.337C3067.81 595.211 3067.44 596.37 3067.44 597.582C3067.44 600.606 3066.31 603.524 3063.78 605.331L3063.74 605.364L3061.7 606.995L3061.16 607.428L3061.38 608.086L3067.08 625.62L3067.09 625.626C3067.71 627.506 3066.45 629.203 3064.77 629.203H3063.68L3063.78 630.29L3064.59 639.669L3064.68 640.676L3065.69 640.577L3118.11 635.435L3057.14 654.121L3057.06 654.146L3056.99 654.183C3055.98 654.687 3055.01 655.66 3054.5 656.669L3054.49 656.702L3050.44 665.611C3049.5 667.126 3047.76 667.353 3046.63 666.517L3038.09 659.602L3037.72 659.298L3037.25 659.402L2970.23 674.262L3021.6 649.453L3022.59 648.974L3022.01 648.032L3017.53 640.692L3017.05 639.908L3015.42 640.727C3014.44 641.216 3013.54 641.183 3012.88 640.87C3012.22 640.558 3011.7 639.926 3011.55 639.01L3011.55 638.99L3007.88 619.417L3007.72 618.602H3006.44L3006.39 618.606C3002.75 618.971 2999.14 616.779 2998.07 613.197C2997.49 611.004 2994.87 609.516 2992.32 610.493C2990.13 611.085 2988.65 613.717 2989.65 616.264V616.265L2996.27 635.037L2988.5 632.121L2987.79 631.858L2987.35 632.458L2981.34 640.473L2979.75 632.854L2979.57 631.968L2978.67 632.063L2913.45 638.995L2913.33 639.009L2913.21 639.05L2767.8 691.876L2758.98 685.328L2764.2 686.237L2764.53 686.295L2764.83 686.143L2815.78 660.045L2816.32 659.767V652.223C2816.32 646.514 2819.75 641.143 2825.13 638.444C2830.11 636.151 2835.84 636.535 2840.42 639.582L2846.53 644.059L2847.04 644.433L2847.59 644.132L2894.46 618.851L2894.99 618.567V614.708C2894.99 607.795 2899.21 601.631 2905.77 598.921C2911.92 596.619 2918.85 598.157 2923.47 602.389L2924.26 603.182L2924.78 603.703L2925.43 603.36L2988.2 570.331L2988.86 569.986L2988.72 569.261L2974.87 495.475C2972.5 481.285 2980.77 467.914 2994.53 463.979Z" stroke="white" stroke-width="2"/>
</g>
</svg>
