<svg width="3313" height="728" viewBox="0 0 3313 728" fill="none" xmlns="http://www.w3.org/2000/svg">
<g clip-path="url(#clip0_218_1913)">
<mask id="mask0_218_1913" style="mask-type:luminance" maskUnits="userSpaceOnUse" x="-3" y="35" width="3320" height="694">
<path d="M3316.78 35H-3V728.291H3316.78V35Z" fill="white"/>
</mask>
<g mask="url(#mask0_218_1913)">
<path d="M3316.78 154.307C2692.99 -128.478 1730.04 314.864 801.148 326.549C349.582 332.275 -2 202.568 -2 202.568V728.291H3316.66V154.307H3316.78Z" fill="#0061AB"/>
</g>
<path d="M-3 224.384C609.358 412.647 996.836 389.381 1730.35 224.384C2518.93 53.0393 2898.78 7.95983 3313 143.177" stroke="white" stroke-width="5"/>
<path d="M-6 236.215C617.254 428.977 1011.63 405.155 1758.19 236.215C2560.8 60.7774 2947.41 14.621 3369 153.068" stroke="white" stroke-width="5"/>
</g>
<defs>
<clipPath id="clip0_218_1913">
<rect width="3313" height="728" fill="white"/>
</clipPath>
</defs>
</svg>
