<svg width="2449" height="763" viewBox="0 0 2449 763" fill="none" xmlns="http://www.w3.org/2000/svg">
<g clip-path="url(#clip0_185_1898)">
<rect width="2449" height="763" fill="#0080B9"/>
<path d="M171.105 34.5441C90.7692 21.3429 48.5325 10.7693 -21.9767 -14.3993L-28.6449 23.1698C49.7246 47.6934 91.8702 56.0292 165.497 66.1363C222.89 72.9755 257.984 75.9936 327.105 80.653C395.647 82.8558 435.783 83.2794 511.38 82.6229C572.021 82.3938 610.119 81.1093 682.404 77.5218L889.227 63.9066L1071.68 50.1591L1241.99 34.1861L1384.8 20.8704L1537.52 7.44674L1744.65 -7.87616L1901.54 -18.8171L2085.03 -27.2923L2300.3 -29.0119L2471.53 -24.1446L2472.97 -32.2561L2301.96 -38.4042L2087 -38.3923L1903.97 -32.4786L1747.6 -24.5261L1540.63 -10.0571L1388.29 1.23197L1245.78 12.84L1075.99 25.8246L893.697 38.7182L687.178 50.6257C620.89 53.1262 583.652 54.2756 516.457 54.0191C443.523 53.6904 403.054 53.0238 332.561 49.9146C269.093 46.2982 233.631 42.895 171.105 34.5441Z" stroke="white" stroke-width="4"/>
<path d="M133.41 668.758C52.2824 655.427 9.62928 644.749 -61.575 619.332L-68.3089 657.272C10.8331 682.037 53.3942 690.455 127.747 700.662C185.706 707.568 221.145 710.616 290.948 715.322C360.166 717.546 400.697 717.974 477.04 717.311C538.278 717.08 576.751 715.783 649.75 712.16L858.611 698.41L1042.86 684.527L1214.85 668.397L1359.07 654.95L1513.3 641.394L1722.46 625.92L1880.91 614.871L2066.21 606.312L2283.59 604.576L2456.51 609.491L2457.96 601.3L2285.27 595.091L2068.2 595.103L1883.36 601.075L1725.45 609.106L1516.43 623.717L1362.59 635.118L1218.68 646.84L1047.22 659.953L863.126 672.973L654.57 684.998C587.629 687.524 550.024 688.684 482.167 688.425C408.513 688.093 367.646 687.42 296.458 684.28C232.364 680.628 196.552 677.191 133.41 668.758Z" stroke="white" stroke-width="4"/>
<path d="M1093.76 329.482C1100.5 327.549 1107.93 331.625 1110.07 338.47L1110.08 338.482L1122.37 376.818L1122.83 378.257L1124.34 378.207L1165.02 376.861L1166.53 376.812L1166.9 375.347C1166.9 375.344 1166.9 375.34 1166.9 375.335C1166.9 375.321 1166.91 375.298 1166.92 375.268C1166.93 375.206 1166.96 375.112 1167 374.995C1167.07 374.759 1167.17 374.435 1167.3 374.085C1167.6 373.295 1167.93 372.699 1168.16 372.464C1169.11 371.508 1170.93 370.858 1173.02 370.809C1175.1 370.76 1176.82 371.317 1177.65 372.041C1178.01 372.423 1178.39 373.107 1178.69 373.866C1178.83 374.225 1178.94 374.549 1179.01 374.783C1179.05 374.899 1179.07 374.991 1179.09 375.051C1179.1 375.08 1179.1 375.102 1179.11 375.114C1179.11 375.117 1179.11 375.119 1179.11 375.121V375.122L1179.5 376.708L1181.14 376.637L1216.9 375.067L1218.54 374.995L1218.79 373.372L1218.79 373.371C1218.79 373.37 1218.79 373.368 1218.79 373.367C1218.8 373.346 1218.8 373.306 1218.82 373.25C1218.84 373.138 1218.88 372.964 1218.95 372.749C1219.09 372.313 1219.31 371.743 1219.66 371.182C1220.33 370.101 1221.41 369.093 1223.38 369.015L1223.38 369.014C1225.93 368.928 1226.85 369.891 1227.26 370.559C1227.51 370.964 1227.65 371.391 1227.72 371.731C1227.75 371.897 1227.77 372.031 1227.77 372.113C1227.78 372.154 1227.78 372.182 1227.78 372.192V374.296L1229.9 374.169L1262.89 372.183L1262.38 373.299L1181.15 387.689L1180.91 387.732L1180.69 387.831L1147.38 402.627L1146.3 403.106L1146.2 404.282L1145.97 406.944L1143.44 406.137L1142.33 405.785L1141.48 406.564L1139.74 408.153L1139.46 401.236C1139.42 398.978 1137.61 397.612 1135.85 397.527L1135.68 397.523C1134.53 397.523 1133.53 398.002 1132.83 398.822C1132.17 399.609 1131.89 400.596 1131.89 401.541C1131.89 402.861 1131.4 403.967 1130.49 404.623L1130.44 404.654L1130.4 404.688L1129.28 405.585L1128.21 406.449L1128.63 407.763L1131.76 417.402L1131.77 417.416C1131.77 417.44 1131.78 417.46 1131.78 417.476H1129.7L1129.88 419.648L1130.33 424.805L1130.5 426.82L1132.52 426.622L1146.89 425.209L1127.26 431.239L1127.11 431.288L1126.96 431.363C1126.12 431.782 1125.36 432.544 1124.95 433.379L1124.93 433.412L1124.91 433.446L1122.75 438.228C1122.74 438.229 1122.74 438.23 1122.74 438.231L1118.16 434.513L1117.41 433.903L1116.47 434.113L1091.85 439.583L1108.83 431.364L1110.81 430.404L1109.67 428.523L1107.21 424.488L1106.25 422.915L1104.6 423.74L1104.16 423.965C1104.14 423.974 1104.12 423.979 1104.1 423.985L1102.1 413.279L1101.8 411.646H1099.81L1099.71 411.656C1098.35 411.792 1097.06 410.963 1096.69 409.711H1096.69C1096.13 407.699 1093.84 406.478 1091.69 407.261C1089.69 407.85 1088.51 410.155 1089.31 412.292V412.293L1091.91 419.681L1090.56 419.173L1089.15 418.644L1088.25 419.847L1086.89 421.673L1086.67 420.638L1086.3 418.864L1084.5 419.056L1048.74 422.867L1048.5 422.893L1048.27 422.977L969.258 451.752L968.582 451.248L995.995 437.172L997.081 436.614V431.581C997.081 429.034 998.608 426.575 1001.08 425.317C1003.35 424.274 1005.94 424.451 1008.02 425.823L1011.33 428.261L1012.35 429.012L1013.47 428.408L1039.17 414.509L1040.22 413.942V410.956C1040.22 407.771 1042.15 404.905 1045.21 403.627C1048.04 402.574 1051.25 403.282 1053.39 405.236L1053.79 405.643L1054.83 406.689L1056.14 406L1090.56 387.841L1091.87 387.153L1091.6 385.704L1084 345.167C1082.82 338.071 1086.94 331.437 1093.76 329.482ZM1218.79 373.374V373.379C1218.79 373.381 1218.79 373.382 1218.79 373.383L1218.79 373.385C1218.79 373.384 1218.79 373.38 1218.79 373.374Z" stroke="white" stroke-width="4"/>
</g>
<defs>
<clipPath id="clip0_185_1898">
<rect width="2449" height="763" fill="white"/>
</clipPath>
</defs>
</svg>
