<svg width="3313" height="693" viewBox="0 0 3313 693" fill="none" xmlns="http://www.w3.org/2000/svg">
<mask id="mask0_218_1919" style="mask-type:luminance" maskUnits="userSpaceOnUse" x="-3" y="0" width="3320" height="694">
<path d="M3316.78 0H-3V693.291H3316.78V0Z" fill="white"/>
</mask>
<g mask="url(#mask0_218_1919)">
<path d="M3316.78 119.307C2692.99 -163.478 1730.04 279.864 801.148 291.549C349.582 297.275 -2 167.568 -2 167.568V693.291H3316.66V119.307H3316.78Z" fill="#0061AB"/>
<path d="M930.685 267.434C560.684 343.213 357.209 370.278 -1 401.092V693H3314C3069.78 375.074 2899.24 231.296 2471.37 101.699C2177.25 47.8413 2005.34 41.7738 1678.52 101.699L1513.83 132.707L1350.09 169.062L1120.28 222.525L930.685 267.434Z" fill="#0080B9" fill-opacity="0.5"/>
</g>
</svg>
