<svg width="97" height="62" viewBox="0 0 97 62" fill="none" xmlns="http://www.w3.org/2000/svg">
<path d="M49.0772 29.295C50.8569 27.8184 52.5002 25.8279 53.5584 23.6905C52.1074 23.2174 50.5763 22.8829 49.0772 22.8829V29.295ZM47.9709 29.2461C46.1351 27.8266 44.4998 25.8361 43.4416 23.6987C44.8845 23.1766 46.4237 22.8911 47.9709 22.8911V29.2461ZM49.0772 0.62C50.8569 2.08842 52.5002 4.03 53.5584 6.17553C52.1074 6.68947 50.5763 7.03211 49.0772 7.03211V0.62ZM47.9709 0.62C46.1351 2.08842 44.4998 4.08711 43.4416 6.17553C44.8845 6.64869 46.4237 7.03211 47.9709 7.03211V0.62ZM49.0772 21.7489V15.4755H55.771C55.771 17.9963 55.1457 20.46 54.0875 22.7442C52.5484 22.1813 50.7126 21.7897 49.0772 21.7489ZM63.6753 15.4755H56.9334C56.8372 18.2329 56.252 20.7047 55.1537 23.1684C56.5967 23.8374 57.8874 24.6368 59.146 25.6811C61.8956 22.9318 63.523 19.2771 63.6753 15.4755ZM58.3283 26.3989C57.2701 25.4934 55.9153 24.6368 54.6166 24.1229C53.4141 26.35 51.9231 28.2018 50.0392 29.8661C53.0774 29.4826 55.9153 28.3487 58.3283 26.3989ZM47.9709 21.7489V15.4755H41.237C41.2771 17.9963 41.8543 20.5089 42.9205 22.7442C44.4998 22.1813 46.2393 21.7897 47.9709 21.7489ZM33.3247 15.4755H40.0746C40.2189 18.2329 40.7961 20.6476 41.9104 23.1684C40.4113 23.8374 39.1126 24.6368 37.8621 25.6811C35.1044 22.9318 33.5251 19.3668 33.3247 15.4755ZM38.6717 26.3989C39.786 25.5424 41.0767 24.5961 42.3834 24.1229C43.5859 26.35 45.0769 28.2018 46.9608 29.8661C43.9226 29.4826 41.0366 28.3487 38.6717 26.3989ZM49.0772 8.1171V14.3905H55.771C55.771 11.8697 55.1457 9.455 54.0875 7.12184C52.5083 7.6929 50.7607 8.06816 49.0772 8.1171ZM63.6753 14.3824H56.9334C56.8372 11.6739 56.2119 9.16132 55.1537 6.73842C56.5967 6.06947 57.9435 5.21289 59.146 4.21763C62.0319 7.06474 63.523 10.6379 63.6753 14.3824ZM58.3283 3.46711C57.222 4.42158 55.9153 5.27 54.6166 5.79211C53.4141 3.5079 51.9231 1.705 50.0392 0C53.0774 0.383421 55.9153 1.52553 58.3283 3.46711ZM47.9709 8.1171V14.3905H41.237C41.2771 11.9187 41.8543 9.40605 42.9205 7.12184C44.4998 7.6929 46.2393 8.06816 47.9709 8.1171ZM33.3247 14.3824H40.0746C40.2189 11.625 40.7961 9.21026 41.9104 6.73842C40.4113 6.06947 39.1126 5.26184 37.8621 4.21763C35.0563 6.98316 33.5251 10.54 33.3247 14.3824ZM38.6717 3.46711C39.786 4.42158 41.0366 5.27 42.3834 5.79211C43.5378 3.55684 45.125 1.66421 46.9608 0C43.9226 0.383421 41.0767 1.52553 38.6717 3.46711ZM0 19.9379H30.2864C31.4007 25.4445 35.2487 30.0047 42.9125 33.1863C42.0387 35.7968 39.0565 38.2116 35.9702 38.2116H19.5603C17.0431 38.2116 15.0791 36.115 14.2614 34.4589H30.9679C31.986 34.2795 32.034 33.4718 31.0159 33.3739H14.5901C12.4737 33.3739 10.5417 31.5629 9.43546 29.6213H28.5549C29.5169 29.4745 29.5169 28.6668 28.5549 28.5282H9.29116C7.36719 28.5282 5.58752 26.3011 4.85802 24.7837H26.0056C27.0638 24.6368 27.0638 23.6905 26.0056 23.6416H4.47322C2.78975 23.6416 1.15438 21.8387 0 19.9379ZM97 19.9379H66.7055C65.5993 25.4445 61.7433 30.0047 54.0875 33.1863C54.9533 35.7968 57.9355 38.2116 61.0218 38.2116H77.4477C79.9569 38.2116 81.9289 36.115 82.7466 34.4589H66.0322C65.0221 34.2795 64.9659 33.4718 65.984 33.3739H82.4099C84.5343 33.3739 86.4503 31.5629 87.5565 29.6213H68.4451C67.4751 29.4745 67.4751 28.6668 68.4451 28.5282H87.7169C89.6408 28.5282 91.4125 26.3011 92.134 24.7837H70.9864C69.9282 24.6368 69.9282 23.6905 70.9864 23.6416H92.5188C94.2103 23.6416 95.8536 21.8387 97 19.9379ZM62.8576 61.6247L72.5736 42.0621H78.9307L82.931 61.6247H76.9106L76.622 59.2997H70.2569L69.2468 61.6247H62.8576ZM71.8602 55.2208H75.9486L74.8904 48.05L71.8602 55.2208ZM50.2316 61.6247L52.4441 46.9079H46.8085L47.7785 41.9642H65.0702L64.1002 46.9079H58.7612L56.5967 61.6247H50.2316ZM24.2179 61.6247L33.95 42.0621H40.3071L44.3074 61.6247H38.335L37.9903 59.2997H31.6412L30.6312 61.6247H24.2179ZM33.2365 55.2208H37.325L36.2588 48.05L33.2365 55.2208ZM13.8205 61.6247L17.7646 42.0621H24.2179L20.2738 61.6247H13.8205Z" fill="white"/>
</svg>
